<svg width="43" height="43" viewBox="0 0 43 43" fill="none" xmlns="http://www.w3.org/2000/svg">
<circle opacity="0.65" cx="21.5" cy="21.5" r="21.5" transform="rotate(90 21.5 21.5)" fill="#DCDCDC"/>
<path d="M33.7554 20.5493C33.7554 21.2525 33.3492 21.8336 32.8221 21.9255L32.6756 21.9382L13.694 21.9375L20.5517 30.7214C20.9743 31.2626 20.9758 32.142 20.555 32.6856C20.1725 33.1797 19.5727 33.2262 19.1493 32.8239L19.0279 32.6898L10.3177 21.5343L10.2963 21.505C10.2742 21.475 10.2531 21.4438 10.2331 21.4113L10.3177 21.5343C10.2757 21.4805 10.2379 21.4234 10.2042 21.3637C10.1839 21.3262 10.1641 21.2872 10.1459 21.2469C10.1048 21.1573 10.0729 21.0636 10.0494 20.9672C10.0414 20.9332 10.0341 20.8985 10.0277 20.8633C10.0226 20.8364 10.0184 20.8091 10.0148 20.7817C10.0112 20.7519 10.0081 20.7222 10.0057 20.6922C10.003 20.662 10.0013 20.6312 10.0005 20.6004C10.0003 20.5833 10 20.5663 10 20.5493L10.0004 20.5032C10.0013 20.469 10.0031 20.4348 10.006 20.4008L10 20.5493C10 20.47 10.0052 20.3922 10.0151 20.3166C10.0196 20.2821 10.0252 20.2475 10.0318 20.2131C10.0372 20.1858 10.043 20.159 10.0495 20.1325C10.0571 20.1011 10.0659 20.0694 10.0755 20.038C10.0855 20.0057 10.0963 19.9741 10.108 19.9431C10.1169 19.9194 10.1268 19.895 10.1373 19.8709C10.1572 19.8256 10.1782 19.7832 10.2009 19.7424C10.2045 19.736 10.2085 19.7289 10.2125 19.7219C10.2485 19.6599 10.2859 19.6052 10.3263 19.5546L19.0279 8.40855C19.4504 7.86728 20.1341 7.8691 20.5549 8.41262C20.9375 8.90672 20.9711 9.67841 20.6566 10.2213L20.5518 10.3768L13.6953 19.1591L32.6756 19.1604C33.2719 19.1604 33.7554 19.7823 33.7554 20.5493Z" fill="#32363C"/>
</svg>
