<svg width="68" height="40" viewBox="0 0 68 40" fill="none" xmlns="http://www.w3.org/2000/svg">
<g clip-path="url(#clip0)">
<path d="M64.192 7.13698L34.4593 36.1093C34.2374 36.3245 33.9732 36.4939 33.6825 36.6074C33.3918 36.7208 33.0806 36.7759 32.7675 36.7694C32.4544 36.7629 32.1459 36.6949 31.8605 36.5696C31.575 36.4442 31.3184 36.264 31.1061 36.0398L3.73665 7.06749C3.43149 6.74425 3.22967 6.34136 3.1559 5.90813C3.08212 5.47489 3.1396 5.03011 3.32128 4.6282C3.50297 4.22629 3.80099 3.88469 4.17887 3.64521C4.55675 3.40572 4.9981 3.27874 5.44892 3.2798H5.85023C6.17624 3.27936 6.4987 3.34564 6.79674 3.47434C7.09478 3.60304 7.36174 3.7913 7.58033 4.02691L31.4896 29.9934L31.5788 30.0803L32.8362 31.3139L60.9191 3.94004C61.1341 3.7296 61.3898 3.56287 61.6715 3.44953C61.9532 3.33619 62.2552 3.2785 62.56 3.2798V3.2798C63.0182 3.28099 63.4658 3.41442 63.8463 3.66323C64.2267 3.91205 64.5229 4.26509 64.6975 4.67779C64.8722 5.09049 64.9173 5.54433 64.8274 5.98202C64.7374 6.41971 64.5163 6.82161 64.192 7.13698V7.13698Z" fill="#00A8E8" stroke="#00A8E8" stroke-width="7" stroke-miterlimit="10"/>
</g>
<defs>
<clipPath id="clip0">
<rect width="68" height="39.5709" fill="white" transform="translate(0 0.239197)"/>
</clipPath>
</defs>
</svg>
